<svg xmlns="http://www.w3.org/2000/svg" viewBox="0 0 45.09 45.143"><defs><style>.a{fill:#92278f;}</style></defs><g transform="translate(-825.305 -1077.497)"><path class="a" d="M125.6,241.578c0-1.042.012-2.085,0-3.127a.782.782,0,0,1,.38-.723l6.364-4.231a.882.882,0,0,1,.343-.159.594.594,0,0,1,.441.135c.969.65,1.937,1.288,2.906,1.937,1.165.785,2.33,1.557,3.507,2.33a.731.731,0,0,1,.368.674v6.34a.728.728,0,0,1-.343.662q-3.2,2.134-6.389,4.267a.6.6,0,0,1-.822,0c-2.134-1.422-4.255-2.845-6.389-4.267a.713.713,0,0,1-.343-.638C125.6,243.687,125.6,242.632,125.6,241.578Zm12.753-3.311c-.1-.074-.159-.11-.221-.159-.294-.2-.6-.392-.9-.6-1.435-.956-2.869-1.913-4.316-2.882a.261.261,0,0,0-.343-.012q-2.63,1.766-5.285,3.532c-.049.037-.086.074-.147.123,1.876,1.251,3.728,2.489,5.592,3.728C134.613,240.769,136.465,239.53,138.353,238.267ZM126.7,239.309c0,.1-.012.159-.012.221v4.844a.331.331,0,0,0,.184.319c1.7,1.128,3.4,2.269,5.1,3.4.061.037.123.074.221.123,0-.1.012-.172.012-.245,0-1.594,0-3.188.012-4.782a.406.406,0,0,0-.2-.368q-2.538-1.692-5.089-3.384A1.082,1.082,0,0,1,126.7,239.309Zm6.6,8.915c.1-.061.159-.1.221-.135,1.7-1.128,3.4-2.269,5.1-3.4a.331.331,0,0,0,.172-.331v-4.795c0-.074-.012-.147-.012-.245-.086.049-.147.074-.2.11q-2.557,1.711-5.114,3.409a.358.358,0,0,0-.184.343c.012,1.594,0,3.188.012,4.782A1.768,1.768,0,0,0,133.3,248.224Z" transform="translate(715.107 872.796)"/><path class="a" d="M13.207,122.474c-.11.061-.172.1-.233.135-1.7,1.128-3.4,2.269-5.1,3.4a.358.358,0,0,0-.184.343v5.04c.086-.049.147-.074.2-.11.858-.564,1.7-1.128,2.563-1.692.061-.037.123-.086.2-.123a.527.527,0,0,1,.687.208.549.549,0,0,1-.123.711l-.11.074c-1.189.785-2.379,1.57-3.568,2.367a.626.626,0,0,1-.773,0c-2.146-1.435-4.292-2.857-6.438-4.292a.658.658,0,0,1-.319-.6v-6.426a.658.658,0,0,1,.319-.6q3.219-2.134,6.438-4.292a.627.627,0,0,1,.785,0c2.134,1.435,4.28,2.857,6.413,4.28a.664.664,0,0,1,.331.613v4.979a.551.551,0,0,1-.368.6.542.542,0,0,1-.711-.429,1.644,1.644,0,0,1-.012-.245v-3.679A1.208,1.208,0,0,0,13.207,122.474Zm-.466-1.03c-.086-.061-.135-.11-.184-.147-1.741-1.165-3.483-2.318-5.224-3.495a.3.3,0,0,0-.38,0c-1.729,1.165-3.47,2.318-5.212,3.483-.061.037-.11.086-.2.147,1.876,1.251,3.728,2.489,5.6,3.728C9.013,123.946,10.865,122.7,12.741,121.444ZM6.6,131.4a2.471,2.471,0,0,0,.012-.282v-4.733a.39.39,0,0,0-.208-.38c-1.692-1.128-3.4-2.256-5.089-3.384-.061-.037-.123-.074-.208-.123a1.573,1.573,0,0,0-.012.221v4.831a.364.364,0,0,0,.172.331c1.7,1.128,3.4,2.269,5.1,3.4A1.084,1.084,0,0,1,6.6,131.4Z" transform="translate(825.305 975.32)"/><path class="a" d="M257.683,131.677v-5.028a.4.4,0,0,0-.208-.38c-1.692-1.128-3.4-2.256-5.089-3.384-.061-.037-.123-.074-.221-.135v3.961a1.006,1.006,0,0,1-.025.27.544.544,0,0,1-1.079-.049.924.924,0,0,1,0-.184v-4.893a.731.731,0,0,1,.368-.674l6.364-4.231a.614.614,0,0,1,.858,0c2.109,1.41,4.231,2.82,6.34,4.231a1.756,1.756,0,0,1,.184.135.482.482,0,0,1,.184.392v6.524a.7.7,0,0,1-.343.638c-2.134,1.422-4.267,2.833-6.4,4.267a.627.627,0,0,1-.785.012l-3.495-2.318a1.746,1.746,0,0,1-.184-.135.548.548,0,0,1,.625-.9c.184.11.356.233.527.343.723.478,1.447.956,2.158,1.435A.592.592,0,0,1,257.683,131.677Zm6.131-9.969c-.086-.061-.135-.11-.184-.147-1.754-1.165-3.495-2.33-5.248-3.507a.276.276,0,0,0-.343,0c-1.754,1.177-3.507,2.342-5.261,3.519-.049.037-.086.074-.159.123q2.814,1.876,5.6,3.728C260.086,124.2,261.938,122.971,263.814,121.708Zm.466,1.03c-.11.074-.172.11-.233.147q-2.538,1.692-5.089,3.384a.383.383,0,0,0-.2.368c.012,1.594,0,3.188,0,4.782,0,.074.012.147.012.245a2.692,2.692,0,0,0,.233-.147c1.692-1.128,3.372-2.256,5.064-3.372a.4.4,0,0,0,.208-.38c-.012-1.582,0-3.176,0-4.758Z" transform="translate(605.036 975.057)"/><path class="a" d="M132.075,14.8c0-.1.012-.172.012-.245V9.749a.341.341,0,0,0-.172-.331c-1.7-1.128-3.421-2.269-5.126-3.409-.061-.037-.123-.074-.221-.135v4.182a.542.542,0,0,1-1.079,0,1.332,1.332,0,0,1-.012-.221V4.942a.647.647,0,0,1,.343-.638c.993-.65,1.987-1.324,2.98-1.987,1.128-.76,2.269-1.508,3.4-2.269a.614.614,0,0,1,.858,0c2.134,1.435,4.255,2.845,6.376,4.255a.721.721,0,0,1,.356.674c-.012,1.631,0,3.262,0,4.893a1.309,1.309,0,0,1-.037.307.526.526,0,0,1-.527.368.537.537,0,0,1-.5-.392,1.311,1.311,0,0,1-.037-.307V5.874a1.334,1.334,0,0,0-.208.123q-2.557,1.711-5.126,3.409a.358.358,0,0,0-.184.343v4.807c0,.061.012.135.012.233.086-.049.147-.086.208-.123.822-.552,1.655-1.091,2.477-1.643.074-.049.147-.1.233-.147a.541.541,0,0,1,.7.184.52.52,0,0,1-.1.711l-.147.11c-1.189.785-2.379,1.57-3.568,2.367a.607.607,0,0,1-.736,0c-1.189-.8-2.379-1.582-3.568-2.367a.569.569,0,0,1-.319-.527.537.537,0,0,1,.736-.491,2.759,2.759,0,0,1,.258.147l2.5,1.655A1.532,1.532,0,0,1,132.075,14.8Zm.564-6.217c1.729-1.165,3.446-2.305,5.163-3.446.135-.086.258-.184.38-.27V4.808c-1.839-1.226-3.7-2.465-5.555-3.7-1.864,1.251-3.728,2.489-5.6,3.74C128.924,6.1,130.775,7.334,132.639,8.584Z" transform="translate(715.217 1077.622)"/><path class="a" d="M206.952,80.79a.57.57,0,0,1,.38.147c.822.6,1.655,1.2,2.477,1.8L214.15,85.9c.061.049.135.1.2.147a.548.548,0,0,1-.613.9,1.346,1.346,0,0,1-.172-.11c-2.281-1.655-4.549-3.311-6.83-4.979a1.389,1.389,0,0,1-.159-.123.55.55,0,0,1-.147-.613A.532.532,0,0,1,206.952,80.79Z" transform="translate(644.228 1006.63)"/><path class="a" d="M81.352,197.392a.629.629,0,0,1,.417.172c.956.7,1.913,1.4,2.882,2.1,1.3.956,2.612,1.9,3.912,2.857.061.049.123.086.184.135a.564.564,0,0,1,.086.736.549.549,0,0,1-.711.147c-.061-.037-.11-.074-.172-.11-2.281-1.655-4.549-3.311-6.83-4.966a.61.61,0,0,1-.319-.515A.528.528,0,0,1,81.352,197.392Z" transform="translate(754.413 904.327)"/><path class="a" d="M228.823,198.028a.581.581,0,0,1-.27.441c-.441.319-.871.638-1.312.956l-5.555,4.047c-.037.037-.086.061-.123.1a.552.552,0,0,1-.76-.11.537.537,0,0,1,.11-.76c.037-.037.086-.061.123-.1,2.256-1.643,4.5-3.286,6.757-4.917a2.305,2.305,0,0,1,.221-.147A.534.534,0,0,1,228.823,198.028Z" transform="translate(631.675 904.267)"/><path class="a" d="M95.194,86.465a.545.545,0,0,1,.27-.478c.343-.245.674-.491,1.018-.748,1.95-1.422,3.912-2.845,5.861-4.267a.7.7,0,0,1,.429-.172.537.537,0,0,1,.5.343.57.57,0,0,1-.135.6,1.386,1.386,0,0,1-.159.123c-2.281,1.655-4.549,3.311-6.83,4.979a.624.624,0,0,1-.54.159A.524.524,0,0,1,95.194,86.465Z" transform="translate(741.785 1006.621)"/></g></svg>