<svg xmlns="http://www.w3.org/2000/svg" viewBox="0 0 44.378 30.888"><defs><style>.a{fill:#92278f;}</style></defs><g transform="translate(-255 -1481)"><path class="a" d="M17.389,30.888H3.416C1.206,30.888,0,29.7,0,27.527V3.324A3.034,3.034,0,0,1,3.343,0h37.7A2.974,2.974,0,0,1,44.35,3.178q.055,12.275,0,24.568A2.984,2.984,0,0,1,41.1,30.888ZM1.169,6.813v20.44c0,1.772.639,2.393,2.448,2.393H40.752c1.827,0,2.448-.621,2.448-2.466V6.813ZM43.2,5.462V3.872c0-2.1-.548-2.649-2.63-2.649H3.8c-.237,0-.493,0-.731.018A1.809,1.809,0,0,0,1.224,2.9c-.073.84-.018,1.68-.018,2.557Z" transform="translate(255 1481)"/><path class="a" d="M75.254,82.407c1.333.676,2.521,1.26,3.708,1.863.42.219.913.475.566.986-.128.2-.767.237-1.078.091-1.534-.694-3.05-1.461-4.567-2.247-.256-.128-.585-.457-.585-.694s.347-.548.6-.676c1.5-.785,3.014-1.553,4.567-2.265.292-.128.932-.091,1.059.11.311.457-.091.749-.511.95C77.812,81.11,76.624,81.713,75.254,82.407Z" transform="translate(195.089 1416.11)"/><path class="a" d="M154.329,81.688c-1.333-.658-2.539-1.242-3.726-1.845-.4-.2-.932-.4-.621-.986.292-.585.767-.292,1.169-.091,1.5.749,3,1.48,4.475,2.247.274.146.639.475.621.658a1.214,1.214,0,0,1-.639.749c-1.48.767-3,1.48-4.493,2.21-.42.2-.932.457-1.133-.164-.073-.219.292-.731.566-.9C151.754,82.931,152.959,82.364,154.329,81.688Z" transform="translate(132.49 1416.829)"/><path class="a" d="M114.2,76.9c.365-.932.658-1.717.968-2.5.877-2.32,1.772-4.64,2.649-6.959.164-.438.384-.968.932-.658.2.11.311.749.2,1.059q-1.671,4.548-3.471,9.078c-.11.274-.53.438-.859.548C114.565,77.506,114.328,77.086,114.2,76.9Z" transform="translate(161.66 1426.491)"/><path class="a" d="M75.918,16.12H66.876c-.457,0-1.1.164-1.078-.6.018-.658.6-.548,1.041-.548H94.4c.457,0,1-.091.986.6-.018.639-.53.548-.95.548Z" transform="translate(201.221 1468.771)"/><circle class="a" cx="0.84" cy="0.84" r="0.84" transform="translate(258.27 1483.466)"/><circle class="a" cx="0.84" cy="0.84" r="0.84" transform="translate(260.937 1483.466)"/><circle class="a" cx="0.84" cy="0.84" r="0.84" transform="translate(263.603 1483.466)"/></g></svg>