<svg xmlns="http://www.w3.org/2000/svg" viewBox="0 0 46.8 28.6"><defs><style>.a,.b,.c,.e{fill:none;}.a,.b,.c{stroke:#92278f;}.b{stroke-linecap:round;}.c{stroke-linecap:square;stroke-linejoin:round;}.d{stroke:none;}</style></defs><g transform="translate(-321.1 -1078.2)"><g transform="translate(321.1 1078.2)"><g class="a" transform="translate(9.1)"><rect class="d" width="28.6" height="28.6" rx="6"/><rect class="e" x="0.5" y="0.5" width="27.6" height="27.6" rx="5.5"/></g><g class="a" transform="translate(27.3 16.9)"><circle class="d" cx="1.95" cy="1.95" r="1.95"/><circle class="e" cx="1.95" cy="1.95" r="1.45"/></g><g class="a" transform="translate(16.9 18.2)"><circle class="d" cx="1.95" cy="1.95" r="1.95"/><circle class="e" cx="1.95" cy="1.95" r="1.45"/></g><g class="a" transform="translate(20.8 7.8)"><circle class="d" cx="1.95" cy="1.95" r="1.95"/><circle class="e" cx="1.95" cy="1.95" r="1.45"/></g><line class="a" x2="2.6" y2="2.6" transform="translate(24.05 11.05)"/><line class="b" x1="10.4" transform="translate(26.65 13.65)"/><line class="a" y1="5.2" transform="translate(18.85 13.65)"/><line class="b" x2="8.45" y2="8.85" transform="translate(10.4 4.8)"/><line class="a" y2="7.8" transform="translate(29.25 20.15)"/><g class="c" transform="translate(39 7.8)"><rect class="d" width="7.8" height="2.6" rx="1"/><rect class="e" x="0.5" y="0.5" width="6.8" height="1.6" rx="0.5"/></g><g class="b" transform="translate(0 7.8)"><rect class="d" width="7.8" height="2.6" rx="1"/><rect class="e" x="0.5" y="0.5" width="6.8" height="1.6" rx="0.5"/></g><g class="b" transform="translate(39 13)"><rect class="d" width="7.8" height="2.6" rx="1"/><rect class="e" x="0.5" y="0.5" width="6.8" height="1.6" rx="0.5"/></g><g class="b" transform="translate(0 13)"><rect class="d" width="7.8" height="2.6" rx="1"/><rect class="e" x="0.5" y="0.5" width="6.8" height="1.6" rx="0.5"/></g><g class="b" transform="translate(39 18.2)"><rect class="d" width="7.8" height="2.6" rx="1"/><rect class="e" x="0.5" y="0.5" width="6.8" height="1.6" rx="0.5"/></g><g class="b" transform="translate(0 18.2)"><rect class="d" width="7.8" height="2.6" rx="1"/><rect class="e" x="0.5" y="0.5" width="6.8" height="1.6" rx="0.5"/></g></g></g></svg>