<svg xmlns="http://www.w3.org/2000/svg" viewBox="0 0 41.709 41.713"><defs><style>.a{fill:#92278f;}</style></defs><g transform="translate(-827 -1456)"><path class="a" d="M69.217,12.258A12.726,12.726,0,1,1,55.289.02C62.847-.537,68.678,4.625,69.217,12.258ZM56.441,24.384a11.727,11.727,0,1,0-11.681-11.7A11.7,11.7,0,0,0,56.441,24.384Z" transform="translate(791.358 1456.021)"/><path class="a" d="M0,160.011A6.626,6.626,0,0,1,6.611,153.4a6.611,6.611,0,1,1-.037,13.222A6.559,6.559,0,0,1,0,160.011Zm4.085,2.637a6.093,6.093,0,0,1-.5-1.393c-.056-1.114-.056-2.228-.019-3.343A1.345,1.345,0,0,1,4.977,156.5a21.1,21.1,0,0,1,3.25.037c.464.056,1.188.539,1.226.891.223,1.708.557,3.491-.39,5.2.557.334,1.17.669,1.746,1.021a5.539,5.539,0,0,0-.576-7.892,5.62,5.62,0,0,0-7.967.687c-1.783,2.173-1.708,5.608.2,7.15C3.008,163.279,3.547,162.945,4.085,162.648Zm4.55-2.99c0-.409-.037-.8,0-1.207.074-.78-.279-1.058-1.04-1.021a20.48,20.48,0,0,1-2.136,0c-.65-.019-.984.223-.966.91.037.836,0,1.671.019,2.507a1.588,1.588,0,0,0,.186.669c.446.687.724.873,2.21.854,1.411-.241,1.708-.854,1.708-2.173A5.042,5.042,0,0,0,8.635,159.658Zm1.337,4.7c-.613-.371-1.244-1.059-1.82-1.04-1.059.056-2.117,0-3.157,0-.594,0-1.207.65-1.82,1.04A5.211,5.211,0,0,0,9.972,164.356Z" transform="translate(827 1331.091)"/><path class="a" d="M153.5,160.011a6.6,6.6,0,1,1,6.574,6.611A6.559,6.559,0,0,1,153.5,160.011Zm4.085,2.637a6.092,6.092,0,0,1-.5-1.393c-.056-1.114-.056-2.228-.019-3.343a1.345,1.345,0,0,1,1.411-1.411,21.1,21.1,0,0,1,3.25.037c.464.056,1.189.539,1.226.891.223,1.708.557,3.491-.39,5.2.557.334,1.17.669,1.746,1.021a5.539,5.539,0,0,0-.576-7.892,5.62,5.62,0,0,0-7.967.687c-1.783,2.173-1.708,5.608.2,7.168C156.508,163.279,157.047,162.945,157.585,162.648Zm4.55-2.99c0-.409-.037-.8,0-1.207.074-.78-.279-1.058-1.04-1.021a20.48,20.48,0,0,1-2.136,0c-.65-.019-.984.223-.966.91.037.836,0,1.671.019,2.507a1.588,1.588,0,0,0,.186.669c.446.687.724.873,2.21.854,1.411-.241,1.708-.854,1.708-2.173A5.042,5.042,0,0,0,162.135,159.658Zm1.337,4.7c-.613-.371-1.244-1.059-1.82-1.04-1.059.056-2.117,0-3.157,0-.594,0-1.207.65-1.82,1.04A5.211,5.211,0,0,0,163.472,164.356Z" transform="translate(702.005 1331.091)"/><path class="a" d="M65.349,141.927a.416.416,0,0,1-.594-.334.5.5,0,0,1,.056-.39c1.059-1.133,2.154-2.21,3.25-3.287a.629.629,0,0,1,.65-.037c.111.074.186.52.074.613-1.114,1.151-2.247,2.284-3.38,3.417C65.386,141.89,65.368,141.909,65.349,141.927Z" transform="translate(774.279 1343.789)"/><path class="a" d="M141.938,141.093a.564.564,0,0,1-.019.427c-.037.074-.074.13-.111.13-.186.056-.483.074-.594-.037-1.151-1.114-2.284-2.228-3.38-3.38-.111-.111-.056-.464.056-.631a.592.592,0,0,1,.557-.037c1.17,1.133,2.3,2.284,3.454,3.454C141.919,141.037,141.919,141.055,141.938,141.093Z" transform="translate(714.812 1344.03)"/><path class="a" d="M77.28,26.382c-1.727-.854-1.727-2.4-1.653-3.993.037-.8-.019-1.616.019-2.414a1.468,1.468,0,0,1,1.541-1.6c1.337-.037,2.656-.037,3.993,0A1.478,1.478,0,0,1,82.7,19.993c.019,1.151-.037,2.284.019,3.435a2.725,2.725,0,0,1-1.783,2.916,1.142,1.142,0,0,1,.019.241c1.411.409,2.823.8,4.234,1.207,1.3.371,1.6.743,1.6,2.1,0,1.541.019,3.1-.019,4.643v.074a.459.459,0,0,1-.891,0c0-.037-.019-.056-.019-.093-.037-1.523-.056-3.027-.019-4.55A1.094,1.094,0,0,0,84.8,28.7a15.319,15.319,0,0,1-2.061-.557c-1.226-.427-2.1.26-1.894,1.5.241,1.523.539,3.046.724,4.568a1.8,1.8,0,0,1-.371,1.207c-.409.539-.947.966-1.411,1.467a.722.722,0,0,1-1.244-.019.858.858,0,0,0-.13-.13c-1.876-1.82-1.857-1.82-1.374-4.383.167-.873.316-1.764.464-2.656.2-1.3-.557-1.968-1.838-1.6a14.714,14.714,0,0,1-1.968.539c-.984.149-1.244.687-1.188,1.616.074,1.411.037,2.841,0,4.271v.074a.448.448,0,0,1-.873,0,.167.167,0,0,0-.019-.093c-.037-1.634,0-3.287-.019-4.921a1.614,1.614,0,0,1,1.356-1.727c1.448-.409,2.916-.817,4.364-1.226A.326.326,0,0,1,77.28,26.382Zm1.894-7c-.594,0-1.17.019-1.764,0s-.836.279-.836.836c0,1.207-.037,2.414.019,3.6.056,1.281,1.968,2.618,3.083,2.191a2.661,2.661,0,0,0,2.043-2.99V21.906C81.681,18.954,82.127,19.418,79.174,19.381Zm.2,16.732c.427-.669,1.17-1.318,1.151-1.95A25.822,25.822,0,0,0,79.9,30.1H78.413a24.9,24.9,0,0,1-.539,2.916C77.466,34.385,77.967,35.277,79.379,36.112Zm1.021-8.6a2.094,2.094,0,0,0-2.4,0c.39.5,1.114,1.393,1.114,1.393A12.918,12.918,0,0,1,80.4,27.514Z" transform="translate(768.698 1441.062)"/><path class="a" d="M83.288,96.8a12.551,12.551,0,0,1-.019,1.671.392.392,0,0,1-.074.186.462.462,0,0,1-.8-.019.236.236,0,0,1-.019-.111c-.037-1.151-.037-2.284,0-3.435A.8.8,0,0,1,82.4,95a.469.469,0,0,1,.8-.056.389.389,0,0,1,.074.2A16.232,16.232,0,0,1,83.288,96.8Z" transform="translate(759.943 1378.853)"/><path class="a" d="M138.169,98.291a.268.268,0,0,1-.037.13.478.478,0,0,1-.8.056.247.247,0,0,1-.056-.149c-.037-1.17-.037-2.34,0-3.528a.169.169,0,0,1,.056-.13.479.479,0,0,1,.8.056.344.344,0,0,1,.037.13C138.225,95.449,138.225,97.733,138.169,98.291Z" transform="translate(715.238 1379.069)"/></g></svg>