<svg xmlns="http://www.w3.org/2000/svg" viewBox="0 0 30.291 35.068"><defs><style>.a{fill:#92278f;}</style></defs><g transform="translate(-835.709 -1252.738)"><path class="a" d="M20.657,5.521c0-.324.008-.629,0-.93A4.262,4.262,0,0,0,20.4,3.1a2.159,2.159,0,0,0-1.527-1.373,5.532,5.532,0,0,0-1.345-.178q-6.411-.018-12.821,0a5.867,5.867,0,0,0-1.175.123A2.24,2.24,0,0,0,1.678,3.507,6.738,6.738,0,0,0,1.544,4.86c-.012,3.233-.008,6.462-.008,9.7q0,7.746,0,15.492A6.732,6.732,0,0,0,1.667,31.4a2.254,2.254,0,0,0,1.943,1.88,10.306,10.306,0,0,0,1.713.115q6.072.012,12.149,0a5.825,5.825,0,0,0,.946-.075,2.366,2.366,0,0,0,2.157-2.161,15.594,15.594,0,0,0,.083-1.773c.012-.455,0-.91,0-1.365,0-.139.028-.2.186-.2.408.012.819.008,1.227,0,.15,0,.19.055.19.2,0,1.041.016,2.085-.012,3.126A3.971,3.971,0,0,1,18.279,35Q12.9,35.01,7.515,35H4.033a3.973,3.973,0,0,1-4.1-4.084q-.006-12.827,0-25.659c0-.475-.008-.95,0-1.425A3.984,3.984,0,0,1,3.922-.059c2.085-.012,4.167,0,6.252,0,2.679,0,5.354-.008,8.033,0a3.973,3.973,0,0,1,4.048,4.072c0,.443,0,.882,0,1.326,0,.059-.059.17-.091.17C21.666,5.525,21.172,5.521,20.657,5.521Z" transform="translate(835.774 1252.803)"/><path class="a" d="M326.554,204.568c.431-.269.8-.522,1.2-.74a6.412,6.412,0,0,1,2.335-.764c.158-.02.19-.087.186-.23-.008-.423,0-.843,0-1.266,0-.127.036-.178.166-.174.408.008.819.008,1.227,0,.154,0,.21.044.206.2-.008.423,0,.843,0,1.266,0,.135.044.182.178.2a6.927,6.927,0,0,1,3.352,1.409c.111.083.17.075.261-.02.34-.348.685-.693,1.013-1.021.38.38.748.744,1.136,1.132-.372.36-.764.736-1.152,1.112.17.249.325.459.463.673a6.864,6.864,0,0,1,1.049,2.814c.024.17.083.214.249.21.408-.012.819,0,1.227,0,.138,0,.2.028.2.182-.008.459,0,.922,0,1.4H338.2c-.044.23-.075.439-.119.653a6.972,6.972,0,0,1-1.31,2.849c-.107.142-.083.214.032.325.34.328.673.665.985.981-.376.384-.74.752-1.124,1.14-.368-.372-.748-.76-1.12-1.136-.34.222-.649.435-.973.625a6.577,6.577,0,0,1-2.509.863c-.154.02-.21.075-.206.233.012.423.008.843,0,1.266,0,.059-.063.162-.1.166-.487.012-.973.008-1.484.008v-1.638a7.2,7.2,0,0,1-3.68-1.543c-.388.4-.768.78-1.124,1.14-.38-.38-.744-.744-1.132-1.136.364-.344.756-.72,1.1-1.053a19.085,19.085,0,0,1-.981-1.8,19.412,19.412,0,0,1-.6-1.935H322.32a1.547,1.547,0,0,1-.02-.166c0-.416,0-.831,0-1.247,0-.139.044-.182.182-.182.423.008.843,0,1.266,0,.135,0,.2-.032.222-.178a7,7,0,0,1,1.421-3.368.149.149,0,0,0-.02-.233c-.3-.293-.6-.594-.9-.894a1.893,1.893,0,0,1-.131-.142c.376-.376.744-.74,1.124-1.116C325.81,203.8,326.186,204.188,326.554,204.568Zm-1.068,5.69a5.574,5.574,0,1,0,5.346-5.667A5.581,5.581,0,0,0,325.486,210.259Z" transform="translate(526.165 1059.316)"/><path class="a" d="M80.6,202.988v-1.472c0-.135.091-.123.178-.123H89.1c.265,0,.265,0,.269.269,0,.368-.008.74,0,1.108.008.174-.051.222-.222.222q-3.817-.006-7.63,0Z" transform="translate(758.301 1059.317)"/><path class="a" d="M80.5,362.5h6.909c.261,0,.261,0,.261.253,0,.384,0,.764,0,1.148,0,.138-.032.2-.186.2q-3.4-.006-6.806,0c-.135,0-.182-.04-.182-.178C80.508,363.458,80.5,363,80.5,362.5Z" transform="translate(758.397 904.586)"/><path class="a" d="M80.8,525.555V524h6.351v1.555Z" transform="translate(758.109 749.476)"/><path class="a" d="M243.294,687.878a1.589,1.589,0,1,1,1.595-1.579A1.589,1.589,0,0,1,243.294,687.878Z" transform="translate(603.576 595.136)"/></g></svg>