<svg xmlns="http://www.w3.org/2000/svg" viewBox="0 0 35.855 38.894"><defs><style>.a{fill:#92278f;}</style></defs><g transform="translate(-259 -1255)"><path class="a" d="M82.207,68.681c-.361-.616-.722-1.231-1.1-1.868,1.953-.3,2.165-.531,2.165-2.4V58.045c0-1.231-.488-1.8-1.7-1.8q-6.464-.032-12.928,0c-1.252,0-1.741.573-1.762,1.868,0,1.953-.021,3.906.021,5.88a4.62,4.62,0,0,0,.361,2.123c.3.446,1.1.573,1.719.87-.255.446-.552.955-.849,1.465h0c-1.189,1.507-1.252,2.356-.042,3.842a4.023,4.023,0,0,1,1.061,2.972c-.042.488.191,1.337.531,1.486,1.04.446.955,1.231.934,2.08-.021.679-.042,1.337,0,2.017a2.246,2.246,0,0,0,2.378,2.314c1.422.021,2.823.042,4.246,0A2.282,2.282,0,0,0,79.6,80.823c.042-.849.021-1.7,0-2.547a1.165,1.165,0,0,1,.7-1.337,1.838,1.838,0,0,0,.764-1.465,4.458,4.458,0,0,1,1.252-3.418C83.269,70.825,83.184,69.954,82.207,68.681ZM68.451,65.136V57.748H81.7v7.345a2.374,2.374,0,0,1-1.465.085c-.637-.234-2.569-3.524-3.121-4.331a2.023,2.023,0,0,0-2.123-1.061,3.361,3.361,0,0,0-1.741.955C72.4,61.76,70.638,64.69,70.4,64.9A2.036,2.036,0,0,1,68.451,65.136ZM75.817,68.7c-.276.318-.552.658-.828.977l-.573-1.146h0C74.947,68.086,75.414,68.086,75.817,68.7Zm2.229,12.164c-.021.276-.594.7-.955.722a31.627,31.627,0,0,1-4.012,0,1.31,1.31,0,0,1-.955-.828c-.106-1.146-.042-2.314-.042-3.566h6.008C78.089,78.446,78.153,79.656,78.046,80.866ZM79.554,75.6H70.617c-.021-.4-.042-.828-.064-1.337h9Zm.488-3.121a1.478,1.478,0,0,1-.87.212c-2.632.021-5.286-.064-7.918.042-1.422.064-1.677-1.061-2.314-1.8-.552-.658.064-1.168.361-1.7.042-.085.085-.191.127-.276h0C71,66.664,72.548,64.35,74.289,61.8c0,1.762.021,3.269-.021,4.8,0,.212-.425.4-.616.658-.234.318-.446.7-.658,1.04h0a1.875,1.875,0,0,0,.616,2.335,2.029,2.029,0,0,0,2.335.361,1.957,1.957,0,0,0,1.295-2.059,5.787,5.787,0,0,0-.849-1.7,1.518,1.518,0,0,1-.594-1.316,30.641,30.641,0,0,1,.191-3.906c1.528,2.25,3.057,4.522,4.564,6.772h0c.021.042.021.064.042.106C81.592,70.464,81.485,71.271,80.042,72.481Z" transform="translate(206.321 1210.711)"/><path class="a" d="M21.3,100.395h6.666V99.1H21.3Z" transform="translate(242.222 1176.937)"/><path class="a" d="M27.987,56.449a1.289,1.289,0,0,1-.212-.149H21.3v1.38h6.687Z" transform="translate(242.222 1210.652)"/><path class="a" d="M27.817,70.642c-2.038-.021-4.076-.042-6.093-.042-.149,0-.276.191-.425.3V72h6.772C27.987,71.47,27.9,71.046,27.817,70.642Z" transform="translate(242.222 1199.387)"/><path class="a" d="M21.4,84.9v1.274h6.644V84.9Z" transform="translate(242.143 1188.123)"/><path class="a" d="M35.812,14.2V4.437c.021-.531.042-1.061.042-1.592,0-2-.849-2.845-2.823-2.845H2.823C.849,0,0,.87,0,2.845c0,.531.021,1.061.042,1.592V23.988C.021,26,0,28.021,0,30.017c0,2.017.828,2.845,2.8,2.845H14.817V31.376H2.8c-1.231,0-1.444-.3-1.21-1.571H14.839V28.382H13.65c-3.609,0-7.218-.021-10.805.021-.977,0-1.465-.34-1.38-1.359.042-.531-.021-1.061-.021-1.592V7.515H34.369v8.364c.064-.4.127-.807.191-1.189-.085.4-.127.807-.191,1.189v9.362c0,.679-.042,1.337-.021,2.017A.979.979,0,0,1,33.286,28.4c-1.1.085-2.208.212-3.333.318v1.125h4.309c.191.87.021,1.486-1,1.571-1.1.085-2.208.191-3.4.3.021.382.042.743.042,1.146,1.274,0,2.441.042,3.609,0a2.232,2.232,0,0,0,2.271-2.314c.021-2.187-.021-4.373-.021-6.581C35.812,20.719,35.812,17.45,35.812,14.2ZM1.55,5.9c-.042-.361-.064-.7-.106-1.04.021-.764.042-1.55.042-2.314,0-.637.234-1.04.913-1.04H9.808c.127,0,.234.127.361.191.064.149.149.3.212.425h0c.573,1.231,1.146,2.462,1.762,3.779Zm12.758.042c-.255-.021-.552-.34-.722-.594-.658-1.146-1.274-2.314-1.911-3.481.17-.127.318-.34.488-.34,2.93-.255,2.93-.255,4.267,2.4.085.191.212.361.3.552.064.106.127.191.191.3-.021.042,0,.085.042.127h0c.106.318.234.637.4,1.1C16.325,5.965,15.306,6.008,14.308,5.944Zm20.018.021H33.2c-4.14,0-8.279-.042-12.419.021-1.125.021-2-.106-2.356-1.337-.488-1-.977-2.017-1.528-3.163H32.925c1.316,0,1.422.127,1.444,1.465,0,.637.021,1.274.042,1.911C34.39,5.18,34.369,5.5,34.326,5.965Z" transform="translate(259 1255)"/></g></svg>